<?xml version="1.0" standalone="no"?><!DOCTYPE svg PUBLIC "-//W3C//DTD SVG 1.1//EN"
        "http://www.w3.org/Graphics/SVG/1.1/DTD/svg11.dtd">
<svg class="icon" width="200px" height="200.00px" viewBox="0 0 1024 1024" version="1.1"
     xmlns="http://www.w3.org/2000/svg">
    <path fill="#000000"
          d="M832 106.666667H192C145.066667 106.666667 106.666667 145.066667 106.666667 192v640c0 46.933333 38.4 85.333333 85.333333 85.333333h640c46.933333 0 85.333333-38.4 85.333333-85.333333V192c0-46.933333-38.4-85.333333-85.333333-85.333333zM202.666667 277.333333H405.333333v64H202.666667c-17.066667 0-32-14.933333-32-32S185.6 277.333333 202.666667 277.333333z m0 213.333334H256v64H202.666667c-17.066667 0-32-14.933333-32-32S185.6 490.666667 202.666667 490.666667zM533.333333 768H202.666667c-17.066667 0-32-14.933333-32-32S185.6 704 202.666667 704H533.333333v64z m288 0H704c0 23.466667-19.2 42.666667-42.666667 42.666667h-21.333333c-23.466667 0-42.666667-19.2-42.666667-42.666667v-64c0-23.466667 19.2-42.666667 42.666667-42.666667h21.333333c23.466667 0 42.666667 19.2 42.666667 42.666667h117.333333c17.066667 0 32 14.933333 32 32s-14.933333 32-32 32z m0-213.333333H426.666667c0 23.466667-19.2 42.666667-42.666667 42.666666h-21.333333c-23.466667 0-42.666667-19.2-42.666667-42.666666v-64c0-23.466667 19.2-42.666667 42.666667-42.666667h21.333333c23.466667 0 42.666667 19.2 42.666667 42.666667h394.666666c17.066667 0 32 14.933333 32 32s-14.933333 32-32 32z m0-213.333334H576c0 23.466667-19.2 42.666667-42.666667 42.666667h-21.333333c-23.466667 0-42.666667-19.2-42.666667-42.666667v-64c0-23.466667 19.2-42.666667 42.666667-42.666666h21.333333c23.466667 0 42.666667 19.2 42.666667 42.666666h245.333333c17.066667 0 32 14.933333 32 32s-14.933333 32-32 32z"/>
</svg>
