<?xml version="1.0" standalone="no"?><!DOCTYPE svg PUBLIC "-//W3C//DTD SVG 1.1//EN"
        "http://www.w3.org/Graphics/SVG/1.1/DTD/svg11.dtd">
<svg class="icon" width="200px" height="200.00px" viewBox="0 0 1024 1024" version="1.1"
     xmlns="http://www.w3.org/2000/svg">
    <path fill="#000000"
          d="M832 106.666667H192C145.066667 106.666667 106.666667 145.066667 106.666667 192v640c0 46.933333 38.4 85.333333 85.333333 85.333333h640c46.933333 0 85.333333-38.4 85.333333-85.333333V192c0-46.933333-38.4-85.333333-85.333333-85.333333zM277.333333 778.666667c0 17.066667-14.933333 32-32 32s-32-14.933333-32-32v-106.666667c0-17.066667 14.933333-32 32-32s32 14.933333 32 32v106.666667z m128 0c0 17.066667-14.933333 32-32 32s-32-14.933333-32-32v-106.666667c0-17.066667 14.933333-32 32-32s32 14.933333 32 32v106.666667z m128 0c0 17.066667-14.933333 32-32 32s-32-14.933333-32-32v-106.666667c0-17.066667 14.933333-32 32-32s32 14.933333 32 32v106.666667z m128 0c0 17.066667-14.933333 32-32 32s-32-14.933333-32-32v-106.666667c0-17.066667 14.933333-32 32-32s32 14.933333 32 32v106.666667z m128 0c0 17.066667-14.933333 32-32 32s-32-14.933333-32-32v-106.666667c0-17.066667 14.933333-32 32-32s32 14.933333 32 32v106.666667zM810.666667 426.666667c0 23.466667-19.2 42.666667-42.666667 42.666666h-85.333333c-23.466667 0-42.666667-19.2-42.666667-42.666666v-42.666667c0-23.466667-19.2-42.666667-42.666667-42.666667h-170.666666c-23.466667 0-42.666667 19.2-42.666667 42.666667v42.666667c0 23.466667-19.2 42.666667-42.666667 42.666666h-85.333333c-23.466667 0-42.666667-19.2-42.666667-42.666666v-170.666667c0-23.466667 19.2-42.666667 42.666667-42.666667h512c23.466667 0 42.666667 19.2 42.666667 42.666667v170.666667z"/>
</svg>
