<?xml version="1.0" standalone="no"?><!DOCTYPE svg PUBLIC "-//W3C//DTD SVG 1.1//EN"
        "http://www.w3.org/Graphics/SVG/1.1/DTD/svg11.dtd">
<svg class="icon" width="200px" height="200.00px" viewBox="0 0 1024 1024" version="1.1"
     xmlns="http://www.w3.org/2000/svg">
    <path fill="#ffffff"
          d="M288 746.666667c-17.066667 0-32 14.933333-32 32V853.333333H138.666667c-17.066667 0-32 14.933333-32 32S121.6 917.333333 138.666667 917.333333h149.333333c17.066667 0 32-14.933333 32-32v-106.666666c0-17.066667-14.933333-32-32-32zM437.333333 277.333333c17.066667 0 32-14.933333 32-32v-106.666666c0-17.066667-14.933333-32-32-32S405.333333 121.6 405.333333 138.666667v106.666666c0 17.066667 14.933333 32 32 32zM586.666667 277.333333c17.066667 0 32-14.933333 32-32v-106.666666c0-17.066667-14.933333-32-32-32S554.666667 121.6 554.666667 138.666667v106.666666c0 17.066667 14.933333 32 32 32zM586.666667 746.666667c-17.066667 0-32 14.933333-32 32v106.666666c0 17.066667 14.933333 32 32 32s32-14.933333 32-32v-106.666666c0-17.066667-14.933333-32-32-32zM885.333333 853.333333H768v-74.666666c0-17.066667-14.933333-32-32-32s-32 14.933333-32 32v106.666666c0 17.066667 14.933333 32 32 32h149.333333c17.066667 0 32-14.933333 32-32s-14.933333-32-32-32zM832 341.333333H192c-46.933333 0-85.333333 38.4-85.333333 85.333334v170.666666c0 46.933333 38.4 85.333333 85.333333 85.333334h640c46.933333 0 85.333333-38.4 85.333333-85.333334v-170.666666c0-46.933333-38.4-85.333333-85.333333-85.333334zM245.333333 597.333333c-17.066667 0-32-14.933333-32-32s14.933333-32 32-32 32 14.933333 32 32-14.933333 32-32 32z m0-106.666666c-17.066667 0-32-14.933333-32-32s14.933333-32 32-32 32 14.933333 32 32-14.933333 32-32 32z m106.666667 106.666666c-17.066667 0-32-14.933333-32-32s14.933333-32 32-32 32 14.933333 32 32-14.933333 32-32 32z m0-106.666666c-17.066667 0-32-14.933333-32-32s14.933333-32 32-32 32 14.933333 32 32-14.933333 32-32 32zM437.333333 746.666667c-17.066667 0-32 14.933333-32 32v106.666666c0 17.066667 14.933333 32 32 32s32-14.933333 32-32v-106.666666c0-17.066667-14.933333-32-32-32z"/>
</svg>
